<svg xmlns="http://www.w3.org/2000/svg" width="108" height="108" viewBox="0 0 108 108">
  <g fill="none" fill-rule="evenodd">
    <rect width="108" height="108" fill="#4A4A4A"/>
    <g fill="#FFF" fill-rule="nonzero" transform="translate(26 34)">
      <path d="M28,10 C21.95,10 17,14.95 17,21 C17,27.05 21.95,32 28,32 C34.05,32 39,27.05 39,21 C39,14.95 34.05,10 28,10 Z"/>
      <path d="M53.2,2.88888889 L38.15,2.88888889 L37.24,1.37222222 C36.75,0.505555556 35.84,0 34.86,0 L21.14,0 C20.16,0 19.25,0.505555556 18.76,1.37222222 L17.85,2.88888889 L2.8,2.88888889 C1.26,2.88888889 0,4.18888889 0,5.77777778 L0,36.1111111 C0,37.7 1.26,39 2.8,39 L53.2,39 C54.74,39 56,37.7 56,36.1111111 L56,5.77777778 C56,4.18888889 54.74,2.88888889 53.2,2.88888889 Z M28,35.3888889 C20.3,35.3888889 14,28.8888889 14,20.9444444 C14,13 20.3,6.5 28,6.5 C35.7,6.5 42,13 42,20.9444444 C42,28.8888889 35.7,35.3888889 28,35.3888889 Z"/>
    </g>
    <rect width="9" height="3" x="69" y="41" fill="#FFF" fill-rule="nonzero" stroke="#4A4A4A"/>
    <rect width="4" height="8" x="33" y="36" fill="#FFF" fill-rule="nonzero" stroke="#FFF"/>
  </g>
</svg>
