<svg xmlns="http://www.w3.org/2000/svg" width="108" height="108" viewBox="0 0 108 108">
  <g fill="none" fill-rule="evenodd">
    <g fill="#FFF" fill-rule="nonzero" transform="translate(33 42)">
      <path d="M21,7.25 C16.6,7.25 13,10.9785714 13,15.5357143 C13,20.0928571 16.6,23.8214286 21,23.8214286 C25.4,23.8214286 29,20.0928571 29,15.5357143 C29,10.9785714 25.4,7.25 21,7.25 Z"/>
      <path d="M39.9,2.14814815 L28.6125,2.14814815 L27.93,1.02037037 C27.5625,0.375925926 26.88,0 26.145,0 L15.855,0 C15.12,0 14.4375,0.375925926 14.07,1.02037037 L13.3875,2.14814815 L2.1,2.14814815 C0.945,2.14814815 0,3.11481481 0,4.2962963 L0,26.8518519 C0,28.0333333 0.945,29 2.1,29 L39.9,29 C41.055,29 42,28.0333333 42,26.8518519 L42,4.2962963 C42,3.11481481 41.055,2.14814815 39.9,2.14814815 Z M21,26.3148148 C15.225,26.3148148 10.5,21.4814815 10.5,15.5740741 C10.5,9.66666667 15.225,4.83333333 21,4.83333333 C26.775,4.83333333 31.5,9.66666667 31.5,15.5740741 C31.5,21.4814815 26.775,26.3148148 21,26.3148148 Z"/>
    </g>
    <rect width="7" height="2" x="65" y="48" fill="#FFF" fill-rule="nonzero" stroke="#4A4A4A"/>
    <rect width="4" height="8" x="37" y="43" fill="#FFF" fill-rule="nonzero" stroke="#FFF"/>
  </g>
</svg>
