<svg xmlns="http://www.w3.org/2000/svg" width="128" height="128" viewBox="0 0 128 128">
  <g fill="none" fill-rule="evenodd">
    <circle cx="64" cy="64" r="64" fill="#4A4A4A" fill-rule="nonzero"/>
    <g fill="#FFF" transform="translate(24 37)">
      <path fill-rule="nonzero" d="M40,13 C31.2,13 24,20.2 24,29 C24,37.8 31.2,45 40,45 C48.8,45 56,37.8 56,29 C56,20.2 48.8,13 40,13 Z"/>
      <path fill-rule="nonzero" d="M76,4 L54.5,4 L53.2,1.9 C52.5,0.7 51.2,0 49.8,0 L30.2,0 C28.8,0 27.5,0.7 26.8,1.9 L25.5,4 L4,4 C1.8,4 0,5.8 0,8 L0,50 C0,52.2 1.8,54 4,54 L76,54 C78.2,54 80,52.2 80,50 L80,8 C80,5.8 78.2,4 76,4 Z M40,49 C29,49 20,40 20,29 C20,18 29,9 40,9 C51,9 60,18 60,29 C60,40 51,49 40,49 Z"/>
      <rect width="13" height="4" x="61.5" y="11.5" stroke="#4A4A4A"/>
      <rect width="4" height="8" x="10.5" y="2.5" stroke="#FFF"/>
    </g>
  </g>
</svg>
